<mxfile host="app.diagrams.net" modified="2024-02-09T16:57:33.914Z" agent="Mozilla/5.0 (Windows NT 10.0; Win64; x64) AppleWebKit/537.36 (KHTML, like Gecko) Chrome/121.0.0.0 Safari/537.36 Edg/121.0.0.0" version="23.1.2" etag="QGeIvpnoDiRTVKm7CUh1" type="github">
  <diagram name="Page-1" id="64HwCNe9Cav_H72E_z2v">
    <mxGraphModel>
      <root>
        <mxCell id="0" />
        <mxCell id="1" parent="0" />
      </root>
    </mxGraphModel>
  </diagram>
</mxfile>
